<svg width="14" height="14" viewBox="0 0 14 14" fill="none" xmlns="http://www.w3.org/2000/svg">
<path fill-rule="evenodd" clip-rule="evenodd" d="M1.79507 0.307989C1.38441 -0.102665 0.718613 -0.102665 0.307959 0.307989C-0.102695 0.718644 -0.102695 1.38445 0.307959 1.7951L5.51288 7.00002L0.308008 12.2049C-0.102646 12.6156 -0.102646 13.2814 0.308008 13.692C0.718662 14.1027 1.38446 14.1027 1.79512 13.692L6.99999 8.48713L12.2048 13.692C12.6155 14.1026 13.2813 14.1026 13.6919 13.692C14.1026 13.2813 14.1026 12.6155 13.6919 12.2049L8.4871 7.00002L13.692 1.79511C14.1027 1.38446 14.1027 0.718658 13.692 0.308003C13.2813 -0.102651 12.6155 -0.102651 12.2049 0.308003L6.99999 5.51291L1.79507 0.307989Z" fill="#B2B0AB"/>
</svg>
